<svg xmlns="http://www.w3.org/2000/svg" viewBox="0 0 400 300" width="406" height="306" class="illustration styles_illustrationTablet__1DWOa"><g id="_335_watering_plant_flatline" data-name="#335_watering_plant_flatline"><path d="M315.72,260.69a8.16,8.16,0,0,1-1.88-.23c-.47-.11-.93-.24-1.4-.38a12.92,12.92,0,0,0-2.53-.56,14.09,14.09,0,0,0-2.24.07,8.17,8.17,0,0,1-4-.31c-.3-.13-.58-.29-.87-.45a7.33,7.33,0,0,0-.73-.39c-1.79-.78-3.92-.39-6.19,0a15.81,15.81,0,0,1-5.58.36l-.46-.09a71.57,71.57,0,0,0-12.59-1.59q-8.83-.06-17.66-.19c-12.39-.19-23.6-.46-34.25-.84l-14.86-.52a117.39,117.39,0,0,0-17.18.23c-25.06,2.81-49.18,2.07-75.87.89-7.09-.31-14.23-.05-21.13.21-4.66.17-9.47.34-14.24.34a.5.5,0,0,1-.5-.5.5.5,0,0,1,.5-.5c4.75,0,9.55-.17,14.2-.34,6.92-.26,14.08-.52,21.21-.21,26.65,1.17,50.74,1.91,75.71-.88a118.28,118.28,0,0,1,17.34-.24l14.85.52c10.65.38,21.85.65,34.23.84q8.84.12,17.66.19A73.48,73.48,0,0,1,290,257.76l.47.09a14.86,14.86,0,0,0,5.21-.37c2.31-.42,4.7-.86,6.77,0,.28.13.56.28.83.44a7.79,7.79,0,0,0,.76.39,7.31,7.31,0,0,0,3.54.24,16.1,16.1,0,0,1,2.41-.07,13.59,13.59,0,0,1,2.72.6c.45.13.9.26,1.35.37a4.71,4.71,0,0,0,3.61-.3.5.5,0,1,1,.54.84A4.57,4.57,0,0,1,315.72,260.69Z" fill="#d1d3d4"></path><path d="M233.57,137.17c.28-.2.52-.39.72-.54.92-.74,2.77-2.11,2.46-3.34s-1.78-2.09-2.7-2.55a5.53,5.53,0,0,0-4.31-.45,3.48,3.48,0,0,0-1.92,5.06,8.94,8.94,0,0,0,2.78,2.73C231.46,138.44,232.67,137.79,233.57,137.17Z" fill="#fff"></path><path d="M231.14,138.68a2,2,0,0,1-.74-.14,9.2,9.2,0,0,1-3-2.92,3.61,3.61,0,0,1-.4-3.17,4.22,4.22,0,0,1,2.57-2.63,6.07,6.07,0,0,1,4.7.47c.6.3,2.6,1.4,3,2.88s-1.41,2.88-2.47,3.71l-.17.14c-.2.16-.46.36-.75.56h0A5.07,5.07,0,0,1,231.14,138.68Zm.11-8.15a3.89,3.89,0,0,0-1.34.23,3.23,3.23,0,0,0-2,2,2.62,2.62,0,0,0,.29,2.3,8.22,8.22,0,0,0,2.55,2.54c.5.22,1.39-.09,2.49-.85h0c.27-.19.51-.37.7-.53l.17-.13c.75-.6,2.33-1.84,2.11-2.69s-1.36-1.69-2.44-2.22A5.71,5.71,0,0,0,231.25,130.53Zm2.32,6.64h0Z" fill="#231f20"></path><path d="M226,146.14a1.32,1.32,0,0,1,.18-1.83l5.23-4.89c2.33-2.17,2.08-6.27-.56-9.12s-6.68-3.41-9-1.23L216.62,134a1.3,1.3,0,0,1-1.83,0,1.31,1.31,0,0,1,.19-1.83l5.23-4.89c3.43-3.22,9.12-2.71,12.66,1.13s3.64,9.57.2,12.78l-5.23,4.89A1.3,1.3,0,0,1,226,146.14Z" fill="#231f20"></path><path d="M226.85,147h-.07a1.61,1.61,0,0,1-1.14-.51,1.82,1.82,0,0,1,.21-2.53l5.23-4.89c2.13-2,1.87-5.77-.59-8.43a7.17,7.17,0,0,0-4.9-2.39,4.64,4.64,0,0,0-3.4,1.19L217,134.32a2,2,0,0,1-1.39.54,1.64,1.64,0,0,1-1.14-.51,1.81,1.81,0,0,1,.21-2.54l5.23-4.88a8.47,8.47,0,0,1,6.18-2.25,10.47,10.47,0,0,1,7.19,3.4c3.73,4,3.8,10.08.17,13.48l-5.23,4.89A2,2,0,0,1,226.85,147Zm-1.46-19.75h.23a8.18,8.18,0,0,1,5.6,2.72c2.83,3,3.07,7.46.54,9.83l-5.23,4.89a.81.81,0,0,0-.15,1.12h0a.67.67,0,0,0,.44.2,1,1,0,0,0,.68-.27l5.23-4.89c3.24-3,3.14-8.45-.22-12.09a9.44,9.44,0,0,0-6.5-3.07,7.45,7.45,0,0,0-5.47,2l-5.22,4.89a.81.81,0,0,0-.16,1.13.61.61,0,0,0,.44.19.93.93,0,0,0,.68-.27l5.23-4.89A5.61,5.61,0,0,1,225.39,127.24Z" fill="#231f20"></path><path d="M203.37,137.54s2.43-16.74-3.7-18.35-12.6,8-13.09,14.53c-.46,6.23,2.66,15.54,2.66,15.54l2.72-2.54a24.78,24.78,0,0,1-2.88-12.95c.65-7.33,7.94-14,10.17-11,1.71,2.25,1.37,17.38,1.37,17.38Z" fill="#231f20"></path><path d="M189.24,149.76l-.12,0a.49.49,0,0,1-.35-.32c-.13-.38-3.15-9.48-2.69-15.73a20.37,20.37,0,0,1,7.57-13.49,7.33,7.33,0,0,1,6.15-1.49c6.48,1.7,4.16,18.2,4.06,18.9a.51.51,0,0,1-.15.29L201,140.47a.5.5,0,0,1-.84-.37c.14-6-.09-15.52-1.26-17.07a1.54,1.54,0,0,0-1.79-.41c-2.66.76-7,5.61-7.5,11.19a24.43,24.43,0,0,0,2.83,12.66.5.5,0,0,1-.1.61l-2.72,2.54A.48.48,0,0,1,189.24,149.76Zm9.07-30.24a7.08,7.08,0,0,0-4.08,1.49,19.57,19.57,0,0,0-7.15,12.75c-.38,5.05,1.68,12.28,2.4,14.6l1.86-1.75a24.84,24.84,0,0,1-2.76-12.89c.5-5.6,4.83-11.09,8.22-12.06a2.48,2.48,0,0,1,2.85.77c1.53,2,1.54,12.73,1.49,16.51l1.76-1.64c.65-4.66,1.26-16.42-3.35-17.62A4.69,4.69,0,0,0,198.31,119.52Zm5.06,18h0Z" fill="#231f20"></path><path d="M238.17,173.25c-1.3,2.26-2.7,4-4.27,4.35a2.52,2.52,0,0,1-1.64-.22l0,0c-1.48-.72-2.15-2.41-1.94-4.34l-16.74-3.72L210.66,172c-2.6,2.44-9.78-1.06-16-7.82s-9.2-14.22-6.6-16.65l17.42-16.28,22.64,24.47-5.86,5.46,10.06,7.43c1.65-1.91,3.92-2.87,5.74-2.33a3.24,3.24,0,0,1,.52.19,2.22,2.22,0,0,1,1.18,1.22C240.25,169,239.44,171.06,238.17,173.25Z" fill="#fff"></path><path d="M233.41,178.15a3.23,3.23,0,0,1-1.37-.32,4.45,4.45,0,0,1-2.28-4.42l-16.06-3.56-2.7,2.51a3.77,3.77,0,0,1-2.82.9c-3.65-.13-9.12-3.56-13.91-8.75-6.54-7.07-9.43-14.69-6.58-17.36l17.42-16.28a.43.43,0,0,1,.36-.13.48.48,0,0,1,.35.16l22.63,24.47a.5.5,0,0,1,0,.71l-5.42,5,9.22,6.8c1.77-1.86,4.06-2.69,5.94-2.14a3.1,3.1,0,0,1,.6.23,2.69,2.69,0,0,1,1.43,1.48c.51,1.33,0,3.24-1.59,6h0c-1.66,2.87-3.08,4.29-4.61,4.59A2.88,2.88,0,0,1,233.41,178.15Zm-19.86-9.35h.11l16.74,3.72a.5.5,0,0,1,.39.54c-.2,1.8.42,3.24,1.65,3.84a2.09,2.09,0,0,0,1.36.2c1.21-.23,2.46-1.54,3.94-4.11h0c1.42-2.45,1.91-4.13,1.53-5.14a1.71,1.71,0,0,0-.94-1,2.32,2.32,0,0,0-.44-.16c-1.59-.47-3.69.41-5.22,2.17a.49.49,0,0,1-.67.08l-10.06-7.42a.49.49,0,0,1-.05-.77l5.49-5.12-22-23.74-17,15.93c-2.36,2.21.67,9.52,6.62,16,4.56,4.93,9.87,8.32,13.22,8.44a2.84,2.84,0,0,0,2.1-.64l2.89-2.69A.49.49,0,0,1,213.55,168.8Z" fill="#231f20"></path><path d="M228.09,155.7c-2.6,2.44-9.78-1.07-16-7.83s-9.2-14.21-6.6-16.65c0,0,12.5-1.46,18.75,5.3S228.09,155.7,228.09,155.7Z" fill="#fff"></path><path d="M225.83,157h-.22c-3.66-.13-9.12-3.57-13.92-8.76-6.53-7.06-9.42-14.69-6.57-17.35a.52.52,0,0,1,.28-.13c.52-.06,12.82-1.42,19.17,5.45s4.11,19.1,4,19.61a.51.51,0,0,1-.15.28A3.68,3.68,0,0,1,225.83,157ZM205.69,131.7c-2.15,2.34.89,9.51,6.74,15.83,4.55,4.93,9.86,8.32,13.22,8.44a3,3,0,0,0,2-.53c.25-1.49,1.83-12.51-3.79-18.58S207.2,131.57,205.69,131.7Zm22.4,24h0Z" fill="#231f20"></path><path d="M238.61,173.68a7.69,7.69,0,0,1-4.71,3.92s-.26-2.38,1.71-6,4.12-3.95,4.12-3.95C240.25,169,239.88,171.49,238.61,173.68Z" fill="#231f20"></path><path d="M233.9,178.1a.52.52,0,0,1-.29-.09.51.51,0,0,1-.2-.35c0-.1-.26-2.59,1.76-6.27s4.39-4.19,4.49-4.2a.51.51,0,0,1,.54.31c.6,1.57.12,4.21-1.16,6.43a8.27,8.27,0,0,1-5,4.16Zm5.49-9.78a7.66,7.66,0,0,0-3.35,3.55A12.54,12.54,0,0,0,234.4,177a7.85,7.85,0,0,0,3.78-3.52h0A8.08,8.08,0,0,0,239.39,168.32Z" fill="#231f20"></path><path d="M183.48,97.31s22.44,14.83,23.63,18.47-.53,8.68-2.4,9.8-5.86-.38-6.8-2.4a10.87,10.87,0,0,1-.65-4.84s-14.93-2.53-18.49-3S183.48,97.31,183.48,97.31Z" fill="#fff"></path><path d="M203.09,126.46a6.57,6.57,0,0,1-1.93-.31,6,6,0,0,1-3.7-2.76,10.74,10.74,0,0,1-.73-4.63c-2.51-.43-14.86-2.51-18-2.91a1.3,1.3,0,0,1-1-.71c-1.64-3,4.63-16.51,5.35-18a.51.51,0,0,1,.32-.27.54.54,0,0,1,.41.07c2.31,1.53,22.63,15,23.83,18.73s-.46,9.1-2.61,10.39A3.69,3.69,0,0,1,203.09,126.46ZM183.68,98c-2.62,5.67-6.15,14.77-5.14,16.62a.34.34,0,0,0,.29.2c3.53.45,18.36,3,18.51,3a.52.52,0,0,1,.42.55,10.41,10.41,0,0,0,.6,4.58,5.19,5.19,0,0,0,3.09,2.23,4,4,0,0,0,3,0c1.63-1,3.29-5.81,2.17-9.22C205.81,113.43,192.64,104,183.68,98Z" fill="#231f20"></path><path d="M148.21,259.83s-3,11.12,0,12.31,33.83-3.32,29-7.52-17.55-7.52-20.48-6.72S148.21,259.83,148.21,259.83Z" fill="#231f20"></path><path d="M150.27,272.84a7.24,7.24,0,0,1-2.25-.23c-3.22-1.3-.81-11-.29-12.9a.47.47,0,0,1,.38-.36c.06,0,5.65-1.14,8.53-1.93,3.23-.88,16.14,2.62,20.94,6.83a1.51,1.51,0,0,1,.43,2.08C176,269.64,157.2,272.84,150.27,272.84Zm-1.66-12.58c-1.15,4.43-1.94,10.73-.22,11.42,2.67,1.08,26.75-2.58,28.77-5.87.12-.19.21-.43-.24-.81-4.79-4.2-17.34-7.35-20-6.62C154.38,259.07,149.83,260,148.61,260.26Z" fill="#231f20"></path><path d="M109.11,258s-5.32,9.85-3.32,11.18,32.34-1.6,30.61-3.6-12.38-5.19-16.1-5.85S109.11,258,109.11,258Z" fill="#231f20"></path><path d="M109.46,270c-2,0-3.49-.14-3.95-.45s-2-2.32,3.17-11.83a.52.52,0,0,1,.5-.26c.08,0,7.51,1.08,11.2,1.74,3.4.6,14.47,3.8,16.4,6a.73.73,0,0,1,0,1C135.36,267.86,117.65,270,109.46,270Zm-.07-11.5c-2.39,4.49-4.27,9.59-3.33,10.22,2,1.24,27.28-1.38,29.8-3-2-1.81-11.65-4.81-15.65-5.52C117,259.63,110.9,258.75,109.39,258.53Z" fill="#231f20"></path><path d="M114,249.87c-.27.4-4.93,8.12-4.93,8.12s2.3,6.15,11.45,4l6.26-9.05Z" fill="#fff"></path><path d="M116.94,262.94c-6.43,0-8.27-4.72-8.29-4.78a.47.47,0,0,1,0-.43c.19-.32,4.66-7.74,4.93-8.14a.5.5,0,0,1,.54-.21l12.77,3.06a.51.51,0,0,1,.36.31.53.53,0,0,1-.06.46l-6.26,9a.47.47,0,0,1-.29.21A16.82,16.82,0,0,1,116.94,262.94ZM109.68,258c.49,1,3,5.23,10.58,3.52l5.73-8.29-11.72-2.81C113.57,251.58,111.12,255.63,109.68,258Z" fill="#231f20"></path><path d="M149.1,252.05l-.89,9.76s6.92,3.19,12.24-.89l3.73-14.55Z" fill="#fff"></path><path d="M154,263.51a15.57,15.57,0,0,1-6-1.25.51.51,0,0,1-.29-.5l.89-9.76a.49.49,0,0,1,.32-.42L164,245.9a.5.5,0,0,1,.51.09.55.55,0,0,1,.15.5L160.94,261a.53.53,0,0,1-.18.28A10.89,10.89,0,0,1,154,263.51Zm-5.26-2c1.38.53,6.91,2.35,11.27-.87l3.45-13.45-13.89,5.23Z" fill="#231f20"></path><path d="M127.44,152.53s3.91,49.29,2.49,51.77-17.71,45-17.71,45-1.46,3.94,9.08,6.25c4.85,1.07,6.78.09,6.78.09s18-26.93,18.82-39.87,4.63-44.87,4.63-44.87Z" fill="#231f20"></path><path d="M125.39,256.58a19.66,19.66,0,0,1-4.19-.5c-5-1.09-8-2.67-9.13-4.71a2.77,2.77,0,0,1-.32-2.2c.67-1.75,16.32-42.63,17.75-45.11,1-1.83-1-31.8-2.55-51.49a.49.49,0,0,1,.25-.48.52.52,0,0,1,.55,0l24.08,18.41a.51.51,0,0,1,.2.46c0,.31-3.87,32.08-4.63,44.84-.77,12.92-18.17,39-18.91,40.12a.52.52,0,0,1-.19.17A7.17,7.17,0,0,1,125.39,256.58Zm2.64-103c.66,8.5,3.71,48.54,2.33,51s-17.51,44.54-17.67,45a1.84,1.84,0,0,0,.28,1.42c.69,1.21,2.71,2.91,8.44,4.16,4,.87,5.88.34,6.34.18,1.33-2,17.92-27.29,18.65-39.49s4.22-41.43,4.6-44.63Z" fill="#231f20"></path><path d="M120.91,145s25,59.13,25.7,62.93,0,46.4,0,46.4,11.71,3.2,19.52-1.77c0,0,9.08-47.21,7.56-56.09s-13.59-57.12-13.59-57.12Z" fill="#231f20"></path><path d="M155,255.88a34.67,34.67,0,0,1-8.47-1,.5.5,0,0,1-.37-.49c0-.42.7-42.58,0-46.3s-25.42-62.23-25.67-62.82a.52.52,0,0,1,0-.44.49.49,0,0,1,.36-.25l39.2-5.65a.48.48,0,0,1,.55.37c.12.48,12.09,48.37,13.6,57.16s-7.19,54.33-7.56,56.26a.47.47,0,0,1-.22.33A21.46,21.46,0,0,1,155,255.88ZM147.11,254c2,.48,11.82,2.47,18.58-1.69.65-3.46,8.94-47.31,7.51-55.69s-12.26-51.8-13.47-56.65l-38.11,5.49c2.76,6.56,24.8,58.79,25.48,62.44S147.19,249.38,147.11,254Z" fill="#231f20"></path><path d="M170.39,132.24s4.44,12.25,8,13.49,51.57-10,51.57-10,5.12-2.68,6.11-1.54c1.28,1.47,5.68-6.57.86-10.24-4.24-3.24-5.79-.73-9.61.56-3.27,1.1-39.17,1.75-39.17,1.75Z" fill="#fff"></path><path d="M179.23,146.31a3.62,3.62,0,0,1-1-.1c-3.66-1.29-7.82-12.52-8.29-13.79a.51.51,0,0,1,.31-.65l17.75-6,.15,0c12.39-.22,36.49-.87,39-1.72a19.21,19.21,0,0,0,2.44-1.06c2.26-1.1,4.2-2.05,7.64.57a6.59,6.59,0,0,1,2.22,6.79c-.44,2.19-1.66,4.2-2.73,4.49a1,1,0,0,1-1-.31c-.39-.45-3,.35-5.51,1.66l-.11,0C225.42,137.26,186.71,146.31,179.23,146.31ZM171,132.55c1.37,3.64,4.9,11.8,7.5,12.71s32-5.52,51.24-10c1.67-.87,5.55-2.68,6.66-1.4h0c.21,0,1-.73,1.65-2.41.4-1.1,1.48-4.85-1.48-7.11s-4.39-1.53-6.59-.46a21.11,21.11,0,0,1-2.56,1.1c-3.26,1.1-36.92,1.74-39.24,1.78Z" fill="#231f20"></path><path d="M166,62a5.42,5.42,0,0,1-2.37-1.58,3.07,3.07,0,0,1-.31-2.89,1.3,1.3,0,0,1-1.69-.87,3,3,0,0,1,.26-2.09A9.29,9.29,0,0,1,163.48,52c-.58-.25-1.46.35-1.81-.18a.86.86,0,0,1,0-.65,10.24,10.24,0,0,1,2.22-3.69c2.6-3.29,5.53-10.28,10.59-10,1,0,1.95.4,2.94.39,1.87,0,3.46-1.31,5.2-2a8.52,8.52,0,0,1,8.33,1.3,44.33,44.33,0,0,1,5.52,4.92,14,14,0,0,1,3,5,6.92,6.92,0,0,1-.55,5.7,1,1,0,0,1-1.14.56,5.24,5.24,0,0,1-1.16-1.14,4.74,4.74,0,0,1-1.29,4.93c-1.86,1.68-3.64,1-5.74.56-3.83-.76-6.21,1.67-9.53,3.19-3.57,1.64-8,2.85-11.89,1.81A17.75,17.75,0,0,1,166,62Z" fill="#fff"></path><path d="M171.27,63.62a12.16,12.16,0,0,1-3.22-.41,19.69,19.69,0,0,1-2.24-.73h0a5.82,5.82,0,0,1-2.59-1.76,3.62,3.62,0,0,1-.58-2.6,1.61,1.61,0,0,1-.36-.1,2,2,0,0,1-1.12-1.19,3.49,3.49,0,0,1,.26-2.45,10.34,10.34,0,0,1,1-1.81,1.09,1.09,0,0,1-1.17-.44,1.26,1.26,0,0,1-.11-1,9.35,9.35,0,0,1,2.08-3.58l.23-.3c.59-.74,1.21-1.7,1.86-2.71,2.22-3.44,5-7.71,9.15-7.5a12.24,12.24,0,0,1,1.39.2,6.86,6.86,0,0,0,1.51.19,7.67,7.67,0,0,0,3.31-1.14,17,17,0,0,1,1.72-.82,9,9,0,0,1,8.83,1.38l.79.64a37.28,37.28,0,0,1,4.78,4.34A14.31,14.31,0,0,1,200,47a7.41,7.41,0,0,1-.61,6.11,1.43,1.43,0,0,1-1.71.77,1.25,1.25,0,0,1-.28-.17,5.31,5.31,0,0,1-1.68,3.85c-1.81,1.63-3.62,1.23-5.37.85l-.8-.17c-2.64-.52-4.53.56-6.72,1.82-.79.45-1.62.92-2.51,1.34A22.6,22.6,0,0,1,171.27,63.62Zm-5.08-2.07a17,17,0,0,0,2.12.7c4,1.06,8.5-.38,11.55-1.78.86-.4,1.66-.86,2.44-1.3,2.26-1.3,4.4-2.52,7.4-1.93l.82.17c1.71.38,3.06.67,4.49-.62a4.26,4.26,0,0,0,1.15-4.39h0a.48.48,0,0,1,0-.15.5.5,0,0,1,1-.19,6.91,6.91,0,0,0,.92.89h0c.05,0,.23,0,.47-.39a6.4,6.4,0,0,0,.49-5.28,13.28,13.28,0,0,0-2.95-4.82,36.68,36.68,0,0,0-4.66-4.22l-.79-.65a8.1,8.1,0,0,0-7.83-1.22,15.18,15.18,0,0,0-1.63.78,8.6,8.6,0,0,1-3.76,1.25,7.83,7.83,0,0,1-1.7-.21,9.8,9.8,0,0,0-1.26-.18c-3.62-.2-6.08,3.65-8.26,7-.67,1-1.3,2-1.91,2.79l-.24.3a8.73,8.73,0,0,0-1.89,3.19c-.05.21,0,.27,0,.27a2.23,2.23,0,0,0,.44-.05,1.94,1.94,0,0,1,1.14,0,.49.49,0,0,1,.29.35.51.51,0,0,1-.11.44,8.69,8.69,0,0,0-1.51,2.4,2.52,2.52,0,0,0-.25,1.74,1,1,0,0,0,.56.58.51.51,0,0,0,.44,0,.49.49,0,0,1,.68.64,2.56,2.56,0,0,0,.26,2.4,4.93,4.93,0,0,0,2.15,1.41Z" fill="#231f20"></path><path d="M189.84,59.66s1,7.12-.25,7.89-3.39-1.13-3.39-1.13" fill="#fff"></path><path d="M188.89,68.24a5.43,5.43,0,0,1-3-1.45.5.5,0,1,1,.67-.74c.47.43,2,1.55,2.79,1.08.53-.32.53-3.78,0-7.4a.5.5,0,0,1,.43-.56.49.49,0,0,1,.56.42c.33,2.24.92,7.54-.48,8.39A1.76,1.76,0,0,1,188.89,68.24Z" fill="#231f20"></path><path d="M192.46,52.13c1.4,2.94-1.12,6.57-2.35,9.12q-2.6,5.39-5.44,10.65c-1.2,2.22-7.13-.52-7.86-1.7l-3,7.81s-3.35,3.52-7.08-.94-3.41-8-3.41-8l5.32-10.24s3.89,1.88,8.4-1.68,7.79-10.77,7.79-10.77S191.09,49.26,192.46,52.13Z" fill="#fff"></path><path d="M170.71,79.83h-.15a5.87,5.87,0,0,1-4.24-2.44c-3.81-4.57-3.53-8.25-3.51-8.41a.37.37,0,0,1,.05-.18l5.31-10.24a.52.52,0,0,1,.66-.22c.15.07,3.69,1.69,7.88-1.63,4.37-3.44,7.62-10.5,7.65-10.57a.45.45,0,0,1,.28-.26.46.46,0,0,1,.38,0c.27.12,6.46,3,7.89,6,1.28,2.68-.35,5.74-1.65,8.19-.25.48-.49.94-.7,1.37-1.73,3.58-3.56,7.17-5.44,10.67a2.32,2.32,0,0,1-2.15,1.1,11.17,11.17,0,0,1-6-2.14l-2.75,7.09a.48.48,0,0,1-.1.17A5.17,5.17,0,0,1,170.71,79.83ZM163.8,69.16c0,.57.08,3.74,3.29,7.59a4.92,4.92,0,0,0,3.5,2.08,4.15,4.15,0,0,0,2.78-1.1l3-7.71a.5.5,0,0,1,.89-.08c.39.63,3.47,2.3,5.59,2.3h.11c.66,0,1.1-.21,1.29-.58,1.88-3.48,3.71-7.06,5.43-10.63.21-.43.46-.9.72-1.39,1.2-2.26,2.69-5.08,1.63-7.3h0c-1.07-2.24-5.53-4.61-7-5.33-.82,1.68-3.78,7.38-7.72,10.49s-7.27,2.33-8.47,1.92Z" fill="#231f20"></path><path d="M185.86,69.17s-3.61.4-3.73-3.19" fill="#fff"></path><path d="M185.54,69.68a4.25,4.25,0,0,1-2.73-.91A3.67,3.67,0,0,1,181.63,66a.5.5,0,0,1,.48-.52.48.48,0,0,1,.52.48,2.7,2.7,0,0,0,.83,2.05,3.46,3.46,0,0,0,2.34.66.5.5,0,0,1,.55.45.5.5,0,0,1-.44.55Z" fill="#231f20"></path><path d="M181.84,58.71a5.45,5.45,0,0,0,.16-3,7.94,7.94,0,0,0-.54-2.26A2.6,2.6,0,0,0,179.8,52a2.42,2.42,0,0,0-1.94.45,4.6,4.6,0,0,0-1.3,1.57,8.57,8.57,0,0,0,.33,8.54l-.09-.31" fill="#fff"></path><path d="M176.89,63.06a.51.51,0,0,1-.42-.23,9.11,9.11,0,0,1-.35-9A5.14,5.14,0,0,1,177.57,52a2.92,2.92,0,0,1,2.35-.53,3.07,3.07,0,0,1,2,1.78,8.28,8.28,0,0,1,.57,2.4,5.78,5.78,0,0,1-.2,3.22.49.49,0,0,1-.66.25.5.5,0,0,1-.25-.66,5.08,5.08,0,0,0,.12-2.68,7.14,7.14,0,0,0-.49-2.11,2.13,2.13,0,0,0-1.33-1.23,1.9,1.9,0,0,0-1.53.37A4.22,4.22,0,0,0,177,54.26a8.1,8.1,0,0,0,0,7.55.49.49,0,0,1,.24.3l.1.3a.51.51,0,0,1-.26.61A.54.54,0,0,1,176.89,63.06Z" fill="#231f20"></path><path d="M176.81,70.2s-2.61-2.4-3.05-5.17c0,0-2.38,5.58,1.57,9.39Z" fill="#231f20"></path><path d="M175.33,74.92a.5.5,0,0,1-.35-.14c-4.15-4-1.7-9.89-1.68-10a.5.5,0,0,1,.53-.3.51.51,0,0,1,.43.42c.4,2.57,2.87,4.86,2.89,4.88a.52.52,0,0,1,.14.54l-1.49,4.21a.51.51,0,0,1-.36.32Zm-1.57-8.15a7.78,7.78,0,0,0,1.37,6.7l1.11-3.13A12.33,12.33,0,0,1,173.76,66.77Z" fill="#231f20"></path><ellipse cx="188.96" cy="56.2" rx="1.42" ry="0.56" transform="matrix(0.57, -0.82, 0.82, 0.57, 34.79, 179.06)" fill="#231f20"></ellipse><path d="M181.4,79.69c-3.33-5.18-16-17.91-26.89-15.42s-36.06,48-33.6,80.75c0,0,32.59,3.46,42.55,1.33,0,0,9.87-39.4,14.57-46.85C178,99.5,184.73,84.87,181.4,79.69Z" fill="#68e1fd"></path><path d="M182.32,83.53s3.45,23.82,8.93,41.26L169.68,136s-10.38-11.45-12.51-21S182.32,83.53,182.32,83.53Z" fill="#68e1fd"></path><path d="M146.9,216.31a.47.47,0,0,1-.16,0,.5.5,0,0,1-.31-.63,13.44,13.44,0,0,0-.3-7.56c-1.39-4.44-15.67-39-15.81-39.37a.5.5,0,1,1,.92-.38c.59,1.43,14.44,35,15.85,39.45a14.21,14.21,0,0,1,.29,8.17A.51.51,0,0,1,146.9,216.31Z" fill="#fff"></path><path d="M168.22,134.26S158,114.13,153.71,102.6" fill="#231f20"></path><path d="M168.22,134.76a.49.49,0,0,1-.44-.27c-.11-.2-10.32-20.29-14.54-31.72a.5.5,0,1,1,.94-.34c4.2,11.37,14.38,31.41,14.48,31.61a.49.49,0,0,1-.22.67A.59.59,0,0,1,168.22,134.76Z" fill="#231f20"></path><path d="M194.55,39.85l-31.88,5.46a15.77,15.77,0,0,1-.22-3.41,16.18,16.18,0,0,1,31.18-5.34A17,17,0,0,1,194.55,39.85Z" fill="#fff"></path><path d="M162.67,45.81a.49.49,0,0,1-.49-.42A16.67,16.67,0,1,1,195,39.77a.54.54,0,0,1-.08.37.5.5,0,0,1-.33.2L162.75,45.8Zm15.91-18.9a15.41,15.41,0,0,0-2.61.22,15.7,15.7,0,0,0-12.89,17.6L194,39.44a16.06,16.06,0,0,0-.8-2.69A15.75,15.75,0,0,0,178.58,26.91Z" fill="#231f20"></path><path d="M154.57,48.14c-.29-1.7,10.34-4.94,23.75-7.23s24.52-2.78,24.81-1.08-10.73,2.7-24.14,5S154.86,49.84,154.57,48.14Z" fill="#fff"></path><path d="M156.2,49.17a3.13,3.13,0,0,1-1.72-.34.91.91,0,0,1-.4-.61h0c-.61-3.52,23.91-7.76,24.16-7.81s24.78-4.2,25.38-.67a.91.91,0,0,1-.17.71c-.85,1.18-5.14,1.88-14,3.22-3.13.48-6.68,1-10.39,1.65s-7.24,1.31-10.35,1.9C162.37,48.43,158.38,49.17,156.2,49.17ZM155.08,48c.87.61,7.27-.61,13.46-1.79,3.12-.59,6.65-1.27,10.37-1.9s7.27-1.18,10.41-1.66c6.34-1,12.89-2,13.32-2.83-.61-.91-9.59-1-24.23,1.55C164,43.87,155.54,46.86,155.08,48Z" fill="#231f20"></path><path d="M194.55,39.85l-31.88,5.46a15.77,15.77,0,0,1-.22-3.41l31.18-5.34A17,17,0,0,1,194.55,39.85Z" fill="#231f20"></path><path d="M162.67,45.81a.49.49,0,0,1-.49-.42,16.62,16.62,0,0,1-.23-3.51.5.5,0,0,1,.41-.47l31.18-5.34a.5.5,0,0,1,.55.31,16.5,16.5,0,0,1,.95,3.39.54.54,0,0,1-.08.37.5.5,0,0,1-.33.2L162.75,45.8Zm.26-3.48a16.2,16.2,0,0,0,.15,2.4L194,39.44a16.09,16.09,0,0,0-.65-2.31Z" fill="#231f20"></path><path d="M242.44,173.91a.39.39,0,0,1-.18,0l-.92-.35a.49.49,0,0,1-.3-.64.51.51,0,0,1,.64-.3l.94.36a.5.5,0,0,1-.18,1Z" fill="#d1d3d4"></path><path d="M264.75,186.08a.51.51,0,0,1-.31-.11c-.55-.43-1.11-.86-1.68-1.27a.51.51,0,0,1-.11-.7.5.5,0,0,1,.7-.11q.87.63,1.71,1.29a.52.52,0,0,1,.08.71A.52.52,0,0,1,264.75,186.08Zm-3.44-2.51a.48.48,0,0,1-.28-.08c-.58-.4-1.17-.78-1.77-1.16a.49.49,0,0,1-.15-.68.49.49,0,0,1,.69-.16c.6.38,1.2.77,1.79,1.17a.49.49,0,0,1,.13.69A.47.47,0,0,1,261.31,183.57Zm-3.59-2.27a.48.48,0,0,1-.26-.07l-1.82-1a.5.5,0,0,1,.49-.88l1.85,1.07a.51.51,0,0,1,.17.69A.49.49,0,0,1,257.72,181.3Zm-3.7-2.08a.53.53,0,0,1-.24-.06c-.63-.34-1.26-.66-1.87-1a.5.5,0,1,1,.45-.89c.62.31,1.25.64,1.89,1a.5.5,0,0,1,.21.68A.51.51,0,0,1,254,179.22Zm-3.79-1.92a.54.54,0,0,1-.22-.05q-1-.48-1.92-.9a.49.49,0,0,1-.24-.66.5.5,0,0,1,.66-.25l1.93.91a.5.5,0,0,1-.21,1Zm-3.87-1.77a.79.79,0,0,1-.2,0l-1.94-.83A.49.49,0,0,1,244,174a.5.5,0,0,1,.65-.28l2,.84a.49.49,0,0,1,.26.66A.49.49,0,0,1,246.36,175.53Z" fill="#d1d3d4"></path><path d="M267.13,188.1a.51.51,0,0,1-.34-.14l-.73-.65a.51.51,0,0,1-.05-.71.49.49,0,0,1,.7,0l.76.68a.5.5,0,0,1-.34.87Z" fill="#d1d3d4"></path><path d="M258.17,202.68a.53.53,0,0,1-.49-.36c-.18-.63-.38-1.26-.6-1.88a.5.5,0,0,1,.3-.64.5.5,0,0,1,.64.31c.23.63.44,1.28.63,1.93a.51.51,0,0,1-.35.62Zm-1.36-3.77a.51.51,0,0,1-.46-.3c-.26-.6-.53-1.2-.83-1.79a.5.5,0,1,1,.9-.44c.3.6.59,1.22.85,1.84a.5.5,0,0,1-.26.65A.45.45,0,0,1,256.81,198.91ZM255,195.33a.5.5,0,0,1-.44-.25c-.32-.58-.66-1.15-1-1.71a.49.49,0,0,1,.17-.68.48.48,0,0,1,.68.16c.36.57.7,1.15,1,1.74a.5.5,0,0,1-.19.68A.53.53,0,0,1,255,195.33Zm-2.11-3.4a.51.51,0,0,1-.42-.21q-.56-.83-1.14-1.62a.5.5,0,1,1,.8-.59c.4.53.79,1.08,1.17,1.64a.5.5,0,0,1-.13.7A.48.48,0,0,1,252.93,191.93Zm-2.38-3.22a.48.48,0,0,1-.39-.19q-.63-.78-1.26-1.53a.49.49,0,0,1,0-.7.5.5,0,0,1,.71.05c.43.51.86,1,1.28,1.56a.51.51,0,0,1-.08.71A.5.5,0,0,1,250.55,188.71ZM248,185.66a.49.49,0,0,1-.37-.16c-.45-.51-.91-1-1.36-1.46a.5.5,0,1,1,.73-.69c.45.47.91,1,1.37,1.48a.49.49,0,0,1,0,.7A.5.5,0,0,1,248,185.66Zm-2.77-2.89a.49.49,0,0,1-.35-.15l-1.43-1.38a.48.48,0,0,1,0-.7.5.5,0,0,1,.71,0c.47.45,1,.91,1.45,1.4a.5.5,0,0,1-.35.86ZM242.27,180a.46.46,0,0,1-.33-.13c-.54-.47-1-.91-1.51-1.3a.51.51,0,0,1-.06-.71.52.52,0,0,1,.71-.06c.47.4,1,.84,1.52,1.32a.5.5,0,0,1-.33.88Zm-3.07-2.58a.53.53,0,0,1-.31-.11c-1-.78-1.57-1.2-1.57-1.21a.5.5,0,1,1,.57-.81s.61.43,1.62,1.23a.51.51,0,0,1,.09.71A.53.53,0,0,1,239.2,177.45Z" fill="#d1d3d4"></path><path d="M245,204.2a.51.51,0,0,1-.5-.43c-.08-.61-.2-1.26-.35-1.94a.5.5,0,1,1,1-.21c.16.7.28,1.37.37,2a.5.5,0,0,1-.42.57Zm-.85-3.91a.5.5,0,0,1-.48-.37c-.18-.62-.38-1.25-.59-1.89a.51.51,0,0,1,.32-.63.5.5,0,0,1,.63.31c.22.65.42,1.3.6,1.94a.51.51,0,0,1-.35.62Zm-1.26-3.81a.51.51,0,0,1-.47-.32c-.23-.62-.47-1.23-.72-1.85a.49.49,0,0,1,.27-.65.5.5,0,0,1,.65.27c.26.63.5,1.25.74,1.88a.5.5,0,0,1-.3.64A.47.47,0,0,1,242.89,196.48Zm-1.52-3.7a.49.49,0,0,1-.45-.3c-.27-.61-.55-1.22-.83-1.81a.5.5,0,0,1,.24-.67.51.51,0,0,1,.67.24c.28.61.56,1.22.83,1.84a.51.51,0,0,1-.25.66A.78.78,0,0,1,241.37,192.78Zm-1.7-3.63a.48.48,0,0,1-.44-.28l-.91-1.78a.5.5,0,0,1,.22-.67.51.51,0,0,1,.67.21c.3.59.61,1.18.91,1.8a.5.5,0,0,1-.22.67A.64.64,0,0,1,239.67,189.15Zm-1.84-3.56a.49.49,0,0,1-.44-.26q-.49-.92-1-1.74a.5.5,0,0,1,.87-.49c.31.55.64,1.14,1,1.76a.49.49,0,0,1-.2.67A.53.53,0,0,1,237.83,185.59Zm-2-3.49a.51.51,0,0,1-.44-.25c-.38-.66-.73-1.23-1-1.71a.5.5,0,1,1,.86-.52c.29.48.64,1.06,1,1.73a.49.49,0,0,1-.18.68A.47.47,0,0,1,235.87,182.1Z" fill="#d1d3d4"></path><path d="M260.62,259.16a.45.45,0,0,1-.46-.44c-.36-10.07.37-29.07,9.32-43.15a.45.45,0,0,1,.63-.14.46.46,0,0,1,.14.63c-8.81,13.87-9.53,32.66-9.17,42.63a.47.47,0,0,1-.45.47Z" fill="#231f20"></path><path d="M260.55,245a.46.46,0,0,1-.44-.33c-2.1-7.13-7.69-15.83-15.48-19.21a.46.46,0,0,1,.37-.84c8.05,3.5,13.83,12.46,16,19.79a.46.46,0,0,1-.31.57Z" fill="#231f20"></path><path d="M256.51,236.39s-10.82-3.82-14,7.26C242.49,243.65,250.09,246.73,256.51,236.39Z" fill="#fff"></path><path d="M245.21,244.54a8.46,8.46,0,0,1-2.89-.46.46.46,0,0,1-.26-.55c1-3.41,2.76-5.8,5.3-7.1,4.28-2.2,9.1-.54,9.3-.47a.43.43,0,0,1,.28.28.45.45,0,0,1,0,.39c-3.4,5.48-7.16,7.22-9.72,7.72A10.28,10.28,0,0,1,245.21,244.54Zm-2.15-1.18c1.57.44,7.45,1.41,12.74-6.7a11.85,11.85,0,0,0-8,.58A9.85,9.85,0,0,0,243.06,243.36Z" fill="#231f20"></path><path d="M245.88,225.25s-4.82-8.18-12.75-2.87C233.13,222.38,236.3,228.38,245.88,225.25Z" fill="#fff"></path><path d="M240.77,226.61c-5.84,0-8-4-8.05-4a.47.47,0,0,1,.15-.6,9.13,9.13,0,0,1,7.21-1.68c3.92.9,6.1,4.55,6.2,4.7a.45.45,0,0,1,0,.39.47.47,0,0,1-.29.28A17.13,17.13,0,0,1,240.77,226.61Zm-7-4.09c.83,1.17,4,4.67,11.41,2.48a9.68,9.68,0,0,0-5.29-3.79A8.07,8.07,0,0,0,233.75,222.52Z" fill="#231f20"></path><path d="M256.39,216.14s-9.21,2.33-6.33,11.44C250.06,227.58,256.71,226.22,256.39,216.14Z" fill="#fff"></path><path d="M250.06,228a.46.46,0,0,1-.44-.32,9.09,9.09,0,0,1,.42-7.4,10.75,10.75,0,0,1,6.24-4.62.45.45,0,0,1,.39.08.44.44,0,0,1,.18.35c.32,10.34-6.63,11.88-6.7,11.9ZM256,216.76a9.66,9.66,0,0,0-5.12,4,8,8,0,0,0-.46,6.24C251.72,226.56,256,224.49,256,216.76Z" fill="#231f20"></path><path d="M262.36,235.46s4.17,8.55,12.52,3.86C274.88,239.32,273.08,231.81,262.36,235.46Z" fill="#fff"></path><path d="M270.07,241.19a7.72,7.72,0,0,1-2.3-.35,10.73,10.73,0,0,1-5.82-5.18.46.46,0,0,1,0-.38.44.44,0,0,1,.28-.25c4-1.36,7.28-1.37,9.73,0a7.12,7.12,0,0,1,3.38,4.21.44.44,0,0,1-.22.5A10.26,10.26,0,0,1,270.07,241.19Zm-7-5.47a9.73,9.73,0,0,0,5,4.25,8.07,8.07,0,0,0,6.28-.87,6.3,6.3,0,0,0-2.84-3.3C269.37,234.65,266.53,234.62,263,235.72Z" fill="#231f20"></path><path d="M264.78,226.51s6,7.32,13,.83C277.82,227.34,274.33,220.47,264.78,226.51Z" fill="#fff"></path><path d="M271.79,230.48a4.35,4.35,0,0,1-.51,0,10.76,10.76,0,0,1-6.86-3.66.47.47,0,0,1-.1-.36.47.47,0,0,1,.21-.32c3.57-2.25,6.75-3,9.44-2.28a7,7,0,0,1,4.26,3.29.44.44,0,0,1-.09.54A9.32,9.32,0,0,1,271.79,230.48Zm-6.3-3.87a9.65,9.65,0,0,0,5.86,2.94,8,8,0,0,0,5.89-2.3,6.35,6.35,0,0,0-3.53-2.54C271.39,224.08,268.63,224.72,265.49,226.61Z" fill="#231f20"></path><path d="M258.63,212.85s-1.17,8.55,7.07,9.46C265.7,222.31,268.06,215.79,258.63,212.85Z" fill="#fff"></path><path d="M265.7,222.77h-.05a8,8,0,0,1-5.72-2.91,10.33,10.33,0,0,1-1.76-7.06.46.46,0,0,1,.59-.37c3.49,1.08,5.82,2.78,6.94,5a6.87,6.87,0,0,1,.43,5A.46.46,0,0,1,265.7,222.77Zm-6.66-9.3a9.19,9.19,0,0,0,1.61,5.82,7.08,7.08,0,0,0,4.71,2.52,6.09,6.09,0,0,0-.48-4C263.93,215.94,262,214.48,259,213.47Z" fill="#231f20"></path><path d="M277,205.35s-9.39,1.45-7.39,10.79C269.56,216.14,277.25,216.65,277,205.35Z" fill="#fff"></path><path d="M269.72,216.6h-.19a.47.47,0,0,1-.41-.37,9.12,9.12,0,0,1,1.1-7.32,10.8,10.8,0,0,1,6.66-4,.48.48,0,0,1,.36.1.49.49,0,0,1,.17.34c.11,4.22-.86,7.34-2.87,9.28A7.15,7.15,0,0,1,269.72,216.6Zm6.78-10.69a9.7,9.7,0,0,0-5.53,3.53,8.05,8.05,0,0,0-1,6.24,6.27,6.27,0,0,0,4-1.74C275.65,212.28,276.51,209.58,276.5,205.91Z" fill="#231f20"></path><path d="M291.82,264.24c-.86-5.1-5.22-7.21-9-10.11-2.57-2-6.42-3.54-9.63-2.29-1.52.59-2.73,1.77-4.42,1.88a9.4,9.4,0,0,1-3.53-.83,15.46,15.46,0,0,0-10.93.58c-1.88.86-3.54,2.15-5.68,2.43a26.12,26.12,0,0,1-4.58-.21c-5.94-.28-12,3.9-17.1,6.49-.92.46-3.81,2.13-3.93,3.15-.16,1.49,3.53,1.28,5,1.54a34.8,34.8,0,0,0,8.59.42c2.27-.17,4.58-.56,6.8-.05,2,.45,3.88,1.63,5.94,1.55A19.9,19.9,0,0,0,253,268a28.75,28.75,0,0,1,3.3-.55c3-.35,6.23-.38,9.17-.55q7.09-.39,14.21-.39A39.34,39.34,0,0,0,291.82,264.24Z" fill="#fff"></path><path d="M249.15,269.25a10.84,10.84,0,0,1-3.73-.89,18.79,18.79,0,0,0-2.13-.68,16.93,16.93,0,0,0-5.32-.05l-1.35.12a35.7,35.7,0,0,1-8.7-.43,12.73,12.73,0,0,0-1.33-.13c-1.47-.11-3.13-.23-3.78-1a1.19,1.19,0,0,1-.27-.91c.16-1.47,4-3.43,4.17-3.51,1-.51,2.08-1.09,3.16-1.69,4.35-2.38,9.3-5.08,14.17-4.85.52,0,1,.08,1.55.13a12.22,12.22,0,0,0,2.95.08,11.1,11.1,0,0,0,3.89-1.53c.54-.3,1.09-.6,1.65-.86a16,16,0,0,1,11.27-.59l.66.23a6.77,6.77,0,0,0,2.7.58,6.29,6.29,0,0,0,2.66-1,11.7,11.7,0,0,1,1.62-.82c3.42-1.34,7.45.33,10.08,2.34.68.52,1.38,1,2.07,1.5,3.14,2.23,6.39,4.53,7.13,8.9a.44.44,0,0,1-.31.51A39.28,39.28,0,0,1,279.65,267h-.17c-4.67,0-9.39.13-14,.39l-2.74.13c-2.12.08-4.3.17-6.4.41a31,31,0,0,0-3.25.54c-.38.09-.77.2-1.16.31a10.24,10.24,0,0,1-2.54.52Zm-8.22-2.72a11.59,11.59,0,0,1,2.56.26,16.72,16.72,0,0,1,2.24.72,9.46,9.46,0,0,0,3.58.83,9.87,9.87,0,0,0,2.33-.48c.4-.12.8-.24,1.21-.33a32.4,32.4,0,0,1,3.35-.56c2.13-.24,4.33-.33,6.46-.42.93,0,1.84-.07,2.73-.12,4.66-.26,9.4-.39,14.09-.39h.17a37.77,37.77,0,0,0,11.65-2.12c-.8-3.74-3.66-5.77-6.69-7.91-.7-.5-1.41-1-2.09-1.52-2.44-1.86-6.13-3.42-9.19-2.22a11.24,11.24,0,0,0-1.51.76,7,7,0,0,1-3.05,1.15,7.7,7.7,0,0,1-3.07-.63l-.64-.22a15,15,0,0,0-10.59.55c-.55.25-1.08.54-1.6.83a12.14,12.14,0,0,1-4.21,1.64,13.42,13.42,0,0,1-3.17-.08c-.49,0-1-.1-1.49-.13-4.65-.22-9.44,2.42-13.69,4.75-1.09.59-2.16,1.18-3.18,1.7-1.69.85-3.62,2.22-3.68,2.79a.29.29,0,0,0,.06.22c.4.48,2.05.6,3.15.67.53,0,1,.08,1.42.15a34.32,34.32,0,0,0,8.47.42l1.34-.12C238.89,266.63,239.91,266.53,240.93,266.53Z" fill="#231f20"></path><path d="M245.12,242.73a.46.46,0,0,1-.32-.79c4-3.91,10.46-5.52,10.74-5.58a.46.46,0,1,1,.21.89c-.06,0-6.49,1.61-10.31,5.35A.48.48,0,0,1,245.12,242.73Z" fill="#231f20"></path><path d="M245.88,225.71a.43.43,0,0,1-.19,0,40.88,40.88,0,0,0-10.19-2.91.45.45,0,1,1,.12-.9,40.38,40.38,0,0,1,10.45,3,.45.45,0,0,1,.23.6A.47.47,0,0,1,245.88,225.71Z" fill="#231f20"></path><path d="M250.06,228a.58.58,0,0,1-.18,0,.46.46,0,0,1-.24-.6,80.43,80.43,0,0,1,4.72-9.62.47.47,0,0,1,.64-.13.45.45,0,0,1,.13.63,81.38,81.38,0,0,0-4.65,9.48A.46.46,0,0,1,250.06,228Z" fill="#231f20"></path><path d="M265.7,222.77a.46.46,0,0,1-.42-.28c-.94-2.12-5.47-6.93-5.51-7a.45.45,0,0,1,0-.65.46.46,0,0,1,.64,0c.19.2,4.68,5,5.68,7.24a.45.45,0,0,1-.23.6A.58.58,0,0,1,265.7,222.77Z" fill="#231f20"></path><path d="M269.56,216.6a.46.46,0,0,1-.4-.68c1.22-2.27,5.31-7.72,5.49-7.95a.46.46,0,1,1,.73.55c-.05,0-4.22,5.63-5.42,7.84A.46.46,0,0,1,269.56,216.6Z" fill="#231f20"></path><path d="M272.85,228.1a34.93,34.93,0,0,1-8.2-1.15.47.47,0,0,1-.32-.56.46.46,0,0,1,.57-.32,32.37,32.37,0,0,0,9.46,1.05.46.46,0,0,1,.49.42.44.44,0,0,1-.41.49C273.91,228.08,273.38,228.1,272.85,228.1Z" fill="#231f20"></path><path d="M262.36,235.46a74.32,74.32,0,0,1,9.93,2.91" fill="#fff"></path><path d="M272.29,238.83a.39.39,0,0,1-.18,0,74.1,74.1,0,0,0-9.85-2.88.47.47,0,0,1-.35-.55.46.46,0,0,1,.54-.35,73.85,73.85,0,0,1,10,2.94.46.46,0,0,1,.25.6A.48.48,0,0,1,272.29,238.83Z" fill="#231f20"></path><path d="M276.39,259.27A.48.48,0,0,1,276,259a6.28,6.28,0,0,0-4.65-3.65,9.47,9.47,0,0,0-6.12,1.08.47.47,0,0,1-.62-.2.45.45,0,0,1,.2-.61,10.39,10.39,0,0,1,6.71-1.17,7.15,7.15,0,0,1,5.34,4.22.46.46,0,0,1-.26.59A.51.51,0,0,1,276.39,259.27Z" fill="#231f20"></path><path d="M236.82,261.24a.46.46,0,0,1-.22-.86,26,26,0,0,1,7.64-2.77.46.46,0,0,1,.53.37.45.45,0,0,1-.36.53,25.15,25.15,0,0,0-7.37,2.67A.46.46,0,0,1,236.82,261.24Z" fill="#231f20"></path><path d="M224.71,267l-.11,0c-.06,0-1.48-.37-6.13-1.76s-12.43.86-12.5.88a.46.46,0,0,1-.57-.32.45.45,0,0,1,.32-.56c.33-.1,8.25-2.31,13-.88,4.62,1.39,6.07,1.75,6.08,1.76a.46.46,0,0,1-.11.9Z" fill="#231f20"></path><path d="M303.73,265.23l-.12,0c-.05,0-5-1.31-7-1.58s-4.58,1-4.61,1a.46.46,0,0,1-.4-.82c.13-.06,3-1.41,5.13-1.11s6.89,1.55,7.1,1.61a.45.45,0,0,1,.32.56A.46.46,0,0,1,303.73,265.23Z" fill="#231f20"></path><path d="M200.92,262.53a.54.54,0,0,1-.21,0,8.15,8.15,0,0,0-5.33-.51.5.5,0,0,1-.61-.37.5.5,0,0,1,.37-.6,9.16,9.16,0,0,1,6,.57.5.5,0,0,1,.24.67A.49.49,0,0,1,200.92,262.53Z" fill="#d1d3d4"></path><path d="M190,269.4h-4.13a.5.5,0,0,1-.5-.5.5.5,0,0,1,.5-.5H190a.5.5,0,0,1,.5.5A.5.5,0,0,1,190,269.4Z" fill="#d1d3d4"></path><path d="M89.52,264.8a9.87,9.87,0,0,1-2-.19.5.5,0,0,1,.2-1,8.9,8.9,0,0,0,3.45,0,.51.51,0,0,1,.59.4.5.5,0,0,1-.4.58A9.82,9.82,0,0,1,89.52,264.8Z" fill="#d1d3d4"></path><path d="M108.52,274.1a.5.5,0,0,1-.16-1,12.16,12.16,0,0,1,3.79-.6.52.52,0,0,1,.53.5.51.51,0,0,1-.5.5h0a11.41,11.41,0,0,0-3.48.55Z" fill="#d1d3d4"></path><path d="M138.77,273.11q-.65,0-1.29,0a.5.5,0,0,1-.47-.53.5.5,0,0,1,.53-.47,22,22,0,0,0,4.13-.16.5.5,0,0,1,.13,1A21.93,21.93,0,0,1,138.77,273.11Z" fill="#d1d3d4"></path><path d="M296.68,269.71a10.23,10.23,0,0,1-1.66-.13.5.5,0,1,1,.15-1,9.88,9.88,0,0,0,3.21,0,.5.5,0,0,1,.18,1A10.85,10.85,0,0,1,296.68,269.71Z" fill="#d1d3d4"></path><path d="M314.62,263.35h-.05l-3.38-.35a.5.5,0,0,1-.45-.55.51.51,0,0,1,.55-.45l3.38.35a.5.5,0,0,1-.05,1Z" fill="#d1d3d4"></path><path d="M248,272.89h0l-5.82,0a.5.5,0,1,1,0-1h0l5.82,0a.51.51,0,0,1,.5.51A.49.49,0,0,1,248,272.89Z" fill="#d1d3d4"></path><path d="M214.79,271.23a.5.5,0,0,1-.12-1,13.77,13.77,0,0,1,5.82-.2.5.5,0,0,1,.4.58.49.49,0,0,1-.58.4,12.73,12.73,0,0,0-5.39.19Z" fill="#d1d3d4"></path></g></svg>